<?xml version="1.0" standalone="no"?>
<!DOCTYPE svg PUBLIC "-//W3C//DTD SVG 20010904//EN"
 "http://www.w3.org/TR/2001/REC-SVG-20010904/DTD/svg10.dtd">
<svg version="1.0" xmlns="http://www.w3.org/2000/svg"
 width="260.000000pt" height="260.000000pt" viewBox="0 0 260.000000 260.000000"
 preserveAspectRatio="xMidYMid meet">
<metadata>
Created by potrace 1.11, written by Peter Selinger 2001-2013
</metadata>
<g transform="translate(0.000000,260.000000) scale(0.100000,-0.100000)"
fill="#000000" stroke="none">
<path d="M1279 2543 c-23 -6 -36 -41 -33 -93 5 -75 -1 -88 -39 -88 -19 0 -69
-7 -113 -16 -43 -9 -88 -18 -99 -20 -52 -10 -160 -52 -260 -101 -258 -127
-465 -336 -595 -600 -51 -104 -92 -216 -106 -289 -2 -12 -8 -43 -14 -71 -5
-27 -12 -84 -14 -125 -3 -60 -2 -71 7 -56 68 107 202 206 314 232 50 11 167
13 218 3 105 -21 246 -111 295 -190 l23 -36 76 76 c80 81 143 118 244 144 41
11 57 12 60 3 2 -6 3 -241 3 -522 l-1 -510 -25 -37 c-47 -68 -125 -95 -200
-70 -64 22 -103 72 -113 146 -6 48 -22 67 -58 67 -45 0 -62 -26 -56 -82 12
-101 72 -184 166 -230 36 -17 63 -23 121 -22 120 0 201 49 252 152 l23 47 2
505 c3 508 4 560 13 561 18 3 93 -18 138 -37 79 -35 167 -106 209 -171 l16
-24 31 38 c90 110 189 173 309 193 137 24 282 -13 387 -98 58 -47 59 -48 102
-105 l36 -47 -4 67 c-2 38 -9 93 -14 123 -6 30 -13 69 -16 85 -11 60 -56 182
-103 280 -104 214 -270 401 -470 530 -169 109 -341 172 -549 201 -24 3 -50 7
-57 8 -24 4 -27 13 -27 82 0 86 -22 113 -79 97z"/>
</g>
</svg>
